<svg width="30" height="30" viewBox="0 0 30 30" fill="none" xmlns="http://www.w3.org/2000/svg">
<path d="M3.125 15.002C3.125 9.40445 3.125 6.60445 4.86375 4.8657C6.6025 3.12695 9.40125 3.12695 15 3.12695C20.5975 3.12695 23.3975 3.12695 25.1362 4.8657C26.875 6.60445 26.875 9.4032 26.875 15.002C26.875 20.5995 26.875 23.3995 25.1362 25.1382C23.3975 26.877 20.5988 26.877 15 26.877C9.4025 26.877 6.6025 26.877 4.86375 25.1382C3.125 23.3995 3.125 20.6007 3.125 15.002Z" stroke="#3A3A3A" stroke-width="2.25" stroke-linecap="round" stroke-linejoin="round"/>
<path d="M21.885 8.12793H21.8725M20.625 15.0029C20.625 16.4948 20.0324 17.9255 18.9775 18.9804C17.9226 20.0353 16.4918 20.6279 15 20.6279C13.5082 20.6279 12.0774 20.0353 11.0225 18.9804C9.96763 17.9255 9.375 16.4948 9.375 15.0029C9.375 13.5111 9.96763 12.0803 11.0225 11.0255C12.0774 9.97056 13.5082 9.37793 15 9.37793C16.4918 9.37793 17.9226 9.97056 18.9775 11.0255C20.0324 12.0803 20.625 13.5111 20.625 15.0029Z" stroke="#3A3A3A" stroke-width="2.25" stroke-linecap="round" stroke-linejoin="round"/>
</svg>
