<svg width="30" height="30" viewBox="0 0 30 30" fill="none" xmlns="http://www.w3.org/2000/svg">
<path d="M8.7493 12.502V21.252M13.7493 16.252V21.252M13.7493 16.252C13.7493 15.7595 13.8463 15.2719 14.0347 14.8169C14.2232 14.3619 14.4994 13.9485 14.8476 13.6003C15.1959 13.2521 15.6093 12.9759 16.0642 12.7874C16.5192 12.5989 17.0068 12.502 17.4993 12.502C17.9918 12.502 18.4794 12.5989 18.9344 12.7874C19.3893 12.9759 19.8027 13.2521 20.1509 13.6003C20.4992 13.9485 20.7754 14.3619 20.9638 14.8169C21.1523 15.2719 21.2493 15.7595 21.2493 16.252V21.252M13.7493 16.252V12.502M8.7593 8.75195H8.74805" stroke="#3A3A3A" stroke-width="2.25" stroke-linecap="round" stroke-linejoin="round"/>
<path d="M3.125 15.002C3.125 9.40445 3.125 6.60445 4.86375 4.8657C6.6025 3.12695 9.40125 3.12695 15 3.12695C20.5975 3.12695 23.3975 3.12695 25.1362 4.8657C26.875 6.60445 26.875 9.4032 26.875 15.002C26.875 20.5995 26.875 23.3995 25.1362 25.1382C23.3975 26.877 20.5988 26.877 15 26.877C9.4025 26.877 6.6025 26.877 4.86375 25.1382C3.125 23.3995 3.125 20.6007 3.125 15.002Z" stroke="#3A3A3A" stroke-width="2.25" stroke-linecap="round" stroke-linejoin="round"/>
</svg>
