<svg width="98" height="70" viewBox="0 0 98 70" fill="none" xmlns="http://www.w3.org/2000/svg">
<path d="M93.6875 24.6875C94.5992 24.6875 95.4735 24.3253 96.1182 23.6807C96.7628 23.036 97.125 22.1617 97.125 21.25V7.5C97.125 5.67664 96.4007 3.92795 95.1114 2.63864C93.822 1.34933 92.0734 0.625 90.25 0.625H7.75C5.92664 0.625 4.17795 1.34933 2.88864 2.63864C1.59933 3.92795 0.875 5.67664 0.875 7.5V21.25C0.875 22.1617 1.23716 23.036 1.88182 23.6807C2.52648 24.3253 3.40082 24.6875 4.3125 24.6875C7.04754 24.6875 9.67057 25.774 11.6045 27.708C13.5385 29.6419 14.625 32.265 14.625 35C14.625 37.735 13.5385 40.3581 11.6045 42.292C9.67057 44.226 7.04754 45.3125 4.3125 45.3125C3.40082 45.3125 2.52648 45.6747 1.88182 46.3193C1.23716 46.964 0.875 47.8383 0.875 48.75V62.5C0.875 64.3234 1.59933 66.072 2.88864 67.3614C4.17795 68.6507 5.92664 69.375 7.75 69.375H90.25C92.0734 69.375 93.822 68.6507 95.1114 67.3614C96.4007 66.072 97.125 64.3234 97.125 62.5V48.75C97.125 47.8383 96.7628 46.964 96.1182 46.3193C95.4735 45.6747 94.5992 45.3125 93.6875 45.3125C90.9525 45.3125 88.3294 44.226 86.3955 42.292C84.4615 40.3581 83.375 37.735 83.375 35C83.375 32.265 84.4615 29.6419 86.3955 27.708C88.3294 25.774 90.9525 24.6875 93.6875 24.6875ZM7.75 51.8438C11.6354 51.0548 15.1285 48.9469 17.6375 45.8771C20.1466 42.8074 21.5172 38.9647 21.5172 35C21.5172 31.0353 20.1466 27.1926 17.6375 24.1229C15.1285 21.0531 11.6354 18.9452 7.75 18.1563V7.5H31.8125V62.5H7.75V51.8438ZM90.25 51.8438V62.5H38.6875V7.5H90.25V18.1563C86.3646 18.9452 82.8715 21.0531 80.3625 24.1229C77.8534 27.1926 76.4828 31.0353 76.4828 35C76.4828 38.9647 77.8534 42.8074 80.3625 45.8771C82.8715 48.9469 86.3646 51.0548 90.25 51.8438Z" fill="#C80032"/>
</svg>
