<svg width="92" height="79" viewBox="0 0 92 79" fill="none" xmlns="http://www.w3.org/2000/svg">
<path d="M36.8327 37.0002C31.791 37.0002 27.475 35.205 23.8848 31.6147C20.2945 28.0245 18.4993 23.7085 18.4993 18.6668C18.4993 13.6252 20.2945 9.30919 23.8848 5.71891C27.475 2.12864 31.791 0.333496 36.8327 0.333496C41.8744 0.333496 46.1903 2.12864 49.7806 5.71891C53.3709 9.30919 55.166 13.6252 55.166 18.6668C55.166 23.7085 53.3709 28.0245 49.7806 31.6147C46.1903 35.205 41.8744 37.0002 36.8327 37.0002ZM0.166016 73.6668V60.8335C0.166016 58.3127 0.815321 55.9446 2.11393 53.7293C3.41254 51.514 5.20768 49.8335 7.49935 48.6877C11.3952 46.7015 15.7875 45.021 20.6764 43.646C25.5653 42.271 30.9507 41.5835 36.8327 41.5835H38.4369C38.8952 41.5835 39.3535 41.6599 39.8118 41.8127C39.2007 43.1877 38.6859 44.6207 38.2673 46.1118C37.8487 47.6029 37.5232 49.149 37.291 50.7502H36.8327C31.4091 50.7502 26.54 51.4377 22.2256 52.8127C17.9112 54.1877 14.3774 55.5627 11.6243 56.9377C10.9368 57.3196 10.3823 57.8543 9.9606 58.5418C9.53893 59.2293 9.32963 59.9932 9.33268 60.8335V64.5002H38.2077C38.666 66.1043 39.2771 67.6902 40.041 69.2577C40.8049 70.8252 41.6452 72.2949 42.5619 73.6668H0.166016ZM64.3327 78.2502L62.9577 71.3752C62.041 70.9932 61.1824 70.5929 60.3818 70.1743C59.5813 69.7557 58.7594 69.2393 57.916 68.6252L51.2702 70.6877L46.6868 62.896L51.9577 58.3127C51.8049 57.2432 51.7285 56.2502 51.7285 55.3335C51.7285 54.4168 51.8049 53.4238 51.9577 52.3543L46.6868 47.771L51.2702 39.9793L57.916 42.0418C58.7563 41.4307 59.5782 40.9159 60.3818 40.4972C61.1855 40.0786 62.0441 39.6768 62.9577 39.2918L64.3327 32.4168H73.4994L74.8744 39.2918C75.791 39.6738 76.6512 40.0939 77.4548 40.5522C78.2584 41.0106 79.0788 41.5835 79.916 42.271L86.5619 39.9793L91.1452 48.0002L85.8744 52.5835C86.0271 53.5002 86.1035 54.455 86.1035 55.4481C86.1035 56.4411 86.0271 57.396 85.8744 58.3127L91.1452 62.896L86.5619 70.6877L79.916 68.6252C79.0757 69.2363 78.2553 69.7527 77.4548 70.1743C76.6542 70.596 75.7941 70.9963 74.8744 71.3752L73.4994 78.2502H64.3327ZM68.916 64.5002C71.4369 64.5002 73.5956 63.6034 75.3923 61.8097C77.1889 60.0161 78.0857 57.8574 78.0827 55.3335C78.0796 52.8096 77.1828 50.6524 75.3923 48.8618C73.6017 47.0713 71.443 46.1729 68.916 46.1668C66.3891 46.1607 64.2318 47.0591 62.4444 48.8618C60.6569 50.6646 59.7585 52.8218 59.7494 55.3335C59.7402 57.8452 60.6385 60.0039 62.4444 61.8097C64.2502 63.6156 66.4074 64.5124 68.916 64.5002ZM36.8327 27.8335C39.3535 27.8335 41.5123 26.9367 43.3089 25.1431C45.1056 23.3495 46.0024 21.1907 45.9994 18.6668C45.9963 16.1429 45.0995 13.9857 43.3089 12.1952C41.5184 10.4046 39.3596 9.50627 36.8327 9.50016C34.3057 9.49405 32.1485 10.3924 30.361 12.1952C28.5735 13.9979 27.6752 16.1552 27.666 18.6668C27.6569 21.1785 28.5552 23.3372 30.361 25.1431C32.1669 26.9489 34.3241 27.8457 36.8327 27.8335Z" fill="#C80032"/>
</svg>
