<svg width="29" height="24" viewBox="0 0 29 24" fill="none" xmlns="http://www.w3.org/2000/svg">
<path d="M14.6786 22.7768C16.9734 22.7768 19.1731 22.5498 21.2118 22.134C23.7602 21.6141 25.0332 21.3555 26.1945 19.862C27.3571 18.3672 27.3571 16.6517 27.3571 13.2209V10.779C27.3571 7.34821 27.3571 5.63153 26.1945 4.13799C25.0332 2.64446 23.7602 2.38455 21.2118 1.86599C19.0609 1.43487 16.8723 1.21953 14.6786 1.22319C12.3838 1.22319 10.184 1.45014 8.1453 1.86599C5.59691 2.38582 4.32398 2.64446 3.16263 4.13799C2 5.6328 2 7.34821 2 10.779V13.2209C2 16.6517 2 18.3684 3.16263 19.862C4.32398 21.3555 5.59691 21.6154 8.1453 22.134C10.184 22.5498 12.3838 22.7768 14.6786 22.7768Z" stroke="#3A3A3A" stroke-width="2.25" stroke-linecap="round" stroke-linejoin="round"/>
<path d="M19.7018 12.3971C19.5142 13.1654 18.5126 13.7156 16.5106 14.8199C14.3324 16.0206 13.2434 16.6203 12.3622 16.3883C12.0685 16.3125 11.7942 16.1755 11.5571 15.9864C10.875 15.4349 10.875 14.29 10.875 12.0002C10.875 9.71048 10.875 8.56561 11.5571 8.01409C11.7879 7.82771 12.0643 7.68952 12.3622 7.61218C13.2434 7.38016 14.3324 7.97986 16.5106 9.18052C18.5138 10.2836 19.5142 10.8351 19.7018 11.6034C19.7652 11.8646 19.7652 12.1359 19.7018 12.3971Z" stroke="#3A3A3A" stroke-width="2.25" stroke-linecap="round" stroke-linejoin="round"/>
</svg>
